<?xml version="1.0" encoding="utf-8"?>
<!-- Generator: Adobe Illustrator 16.0.0, SVG Export Plug-In . SVG Version: 6.00 Build 0)  -->
<!DOCTYPE svg PUBLIC "-//W3C//DTD SVG 1.1//EN" "http://www.w3.org/Graphics/SVG/1.1/DTD/svg11.dtd">
<svg version="1.1" id="Layer_1" xmlns="http://www.w3.org/2000/svg" xmlns:xlink="http://www.w3.org/1999/xlink" x="0px" y="0px"
	 width="24.5px" height="25.334px" viewBox="340.75 371.5 24.5 25.334" enable-background="new 340.75 371.5 24.5 25.334"
	 xml:space="preserve">
<g id="icomoon-ignore">
</g>
<path fill="#FCFCFC" d="M341.529,381.72c0-5.602,4.792-9.715,9.784-9.715c3.943,0,6.674,2.124,8.292,4.469
	c-2.327-0.327-4.114-0.002-6.146,1.32c-2.034-1.084-4.686-0.421-6.021,1.79c-2.643,0.844-4.543,2.805-5.579,4.764
	C341.685,383.637,341.529,382.625,341.529,381.72L341.529,381.72z"/>
<path fill="#FCFCFC" d="M350.333,396.005c-3.703,0-7.392-2.888-7.392-7.391c0-2.659,1.455-5.153,3.859-6.486
	c-0.01,1.762,1.675,3.668,3.022,4.039c0.469,3.09,2.694,6.004,6.412,6.897C355.159,394.555,353.135,396.005,350.333,396.005
	L350.333,396.005z"/>
<path fill="#FCFCFC" d="M364.646,384.828c0,3.744-3.058,6.468-6.469,6.468c-2.812,0-5.528-1.877-6.318-4.939
	c3.775-0.385,5.104-4.7,3.178-7.146c0.963-0.579,1.984-0.848,3.14-0.851C361.982,378.352,364.646,381.425,364.646,384.828
	L364.646,384.828z"/>
<path fill="#FCFCFC" d="M354.549,381.87c0,1.75-1.42,3.169-3.17,3.169c-1.751,0-3.169-1.419-3.169-3.169
	c0-1.75,1.418-3.169,3.169-3.169C353.129,378.701,354.549,380.12,354.549,381.87L354.549,381.87z"/>
</svg>
